<svg width="2506" height="1756" viewBox="0 0 2506 1756" fill="none" xmlns="http://www.w3.org/2000/svg">
<rect x="119" y="119" width="1694" height="920" rx="61" stroke="white" stroke-width="6"/>
<rect x="858" y="471" width="100" height="100" fill="white"/>
<rect x="974" y="471" width="100" height="100" fill="white"/>
<rect x="974" y="587" width="100" height="100" fill="white"/>
<rect x="858" y="587" width="100" height="100" fill="white"/>
<rect x="1953" y="119" width="438" height="920" rx="45" stroke="white" stroke-width="6"/>
<rect x="1988" y="163" width="50" height="50" rx="25" stroke="white" stroke-width="6"/>
<rect x="1988" y="230" width="50" height="50" rx="25" stroke="white" stroke-width="6"/>
<rect x="1988" y="297" width="50" height="50" rx="25" stroke="white" stroke-width="6"/>
<path d="M2114.73 862.28C2111.06 862.28 2108.62 860.712 2106.75 858.612L2110.22 855.868C2111.25 857.66 2112.82 858.64 2114.7 858.64C2116.71 858.64 2117.81 857.324 2117.81 855.896C2117.81 854.188 2115.71 853.628 2113.55 852.956C2110.78 852.06 2107.75 851.024 2107.75 847.132C2107.75 843.856 2110.61 841.28 2114.53 841.28C2117.81 841.28 2119.74 842.54 2121.39 844.248L2118.25 846.628C2117.39 845.312 2116.15 844.668 2114.56 844.668C2112.68 844.668 2111.7 845.676 2111.7 846.992C2111.7 848.644 2113.63 849.12 2115.87 849.876C2118.65 850.772 2121.78 852.004 2121.78 855.924C2121.78 859.144 2119.21 862.28 2114.73 862.28ZM2131.47 862.336C2127.53 862.336 2123.41 859.2 2123.41 853.824C2123.41 848.392 2127.39 845.284 2131.53 845.284C2133.69 845.284 2135.59 846.152 2136.79 847.58V845.62H2140.57V862H2136.79V859.872C2135.59 861.412 2133.63 862.336 2131.47 862.336ZM2132.09 858.864C2134.92 858.864 2136.99 856.596 2136.99 853.768C2136.99 850.968 2134.92 848.728 2132.09 848.728C2129.29 848.728 2127.13 850.94 2127.13 853.768C2127.13 856.624 2129.29 858.864 2132.09 858.864ZM2142.86 862V845.62H2146.62V847.524C2147.65 846.152 2149.28 845.284 2151.29 845.284C2153.87 845.284 2155.63 846.32 2156.61 848.112C2157.73 846.404 2159.64 845.284 2161.99 845.284C2166.44 845.284 2168.65 847.86 2168.65 852.144V862H2164.79V852.452C2164.79 850.072 2163.58 848.56 2161.23 848.56C2159.19 848.56 2157.62 849.96 2157.62 852.844V862H2153.78V852.34C2153.78 849.988 2152.61 848.56 2150.34 848.56C2148.21 848.56 2146.64 850.016 2146.64 852.928V862H2142.86ZM2176.97 862.336C2173.3 862.336 2171 860.936 2169.69 858.36L2173.19 856.68C2173.97 858.22 2175.34 859.06 2177.14 859.06C2179.01 859.06 2179.94 858.164 2179.94 857.072C2179.94 855.868 2178.12 855.644 2176.1 855.196C2173.3 854.608 2170.36 853.712 2170.36 850.268C2170.36 847.636 2172.91 845.256 2176.8 845.256C2180.13 845.256 2182.23 846.544 2183.49 848.644L2180.27 850.268C2179.6 849.12 2178.37 848.392 2176.8 848.392C2175.01 848.392 2174.17 849.232 2174.17 850.156C2174.17 851.248 2175.46 851.528 2177.92 852.06C2180.61 852.592 2183.69 853.544 2183.69 856.988C2183.69 859.284 2181.64 862.336 2176.97 862.336ZM2199.92 845.62V862H2196.17V860.124C2195.13 861.496 2193.56 862.336 2191.46 862.336C2187.54 862.336 2185.16 859.788 2185.16 855.336V845.62H2189V854.944C2189 857.492 2190.12 859.06 2192.5 859.06C2194.6 859.06 2196.14 857.492 2196.14 854.608V845.62H2199.92ZM2202.25 862V845.62H2206.01V847.636C2207.1 846.208 2208.78 845.284 2210.91 845.284C2215.02 845.284 2217.4 847.832 2217.4 852.284V862H2213.57V852.676C2213.57 850.128 2212.33 848.56 2209.87 848.56C2207.71 848.56 2206.03 850.128 2206.03 853.012V862H2202.25ZM2232.47 861.72V859.816C2231.27 861.384 2229.33 862.336 2227.12 862.336C2223.17 862.336 2219.06 859.2 2219.06 853.824C2219.06 848.392 2223.03 845.284 2227.18 845.284C2229.33 845.284 2231.24 846.236 2232.44 847.72V845.62H2236.22V861.58C2236.22 866.172 2233.28 869.924 2227.77 869.924C2223.51 869.924 2220.85 867.936 2219.37 865.22L2222.73 863.176C2223.93 865.388 2225.22 866.452 2227.82 866.452C2230.68 866.452 2232.47 864.212 2232.47 861.72ZM2227.74 858.864C2230.57 858.864 2232.64 856.596 2232.64 853.768C2232.64 850.968 2230.57 848.728 2227.74 848.728C2224.94 848.728 2222.78 850.94 2222.78 853.768C2222.78 856.624 2224.94 858.864 2227.74 858.864Z" fill="white"/>
<rect x="119" y="1141" width="1694" height="512" rx="53" stroke="white" stroke-width="6"/>
<rect x="153" y="1552" width="156" height="58" rx="11" stroke="white" stroke-width="6"/>
<rect x="349" y="1552" width="58" height="58" rx="11" stroke="white" stroke-width="6"/>
<rect x="545" y="1552" width="450" height="58" rx="11" stroke="white" stroke-width="6"/>
<rect x="1525" y="1552" width="58" height="58" rx="11" stroke="white" stroke-width="6"/>
<rect x="447" y="1552" width="58" height="58" rx="11" stroke="white" stroke-width="6"/>
<rect x="1035" y="1552" width="58" height="58" rx="11" stroke="white" stroke-width="6"/>
<rect x="1133" y="1552" width="58" height="58" rx="11" stroke="white" stroke-width="6"/>
<rect x="1230" y="1552" width="58" height="58" rx="11" stroke="white" stroke-width="6"/>
<rect x="1427" y="1552" width="58" height="58" rx="11" stroke="white" stroke-width="6"/>
<rect x="1623" y="1552" width="58" height="58" rx="11" stroke="white" stroke-width="6"/>
<rect x="153" y="1460" width="156" height="58" rx="11" stroke="white" stroke-width="6"/>
<rect x="349" y="1460" width="58" height="58" rx="11" stroke="white" stroke-width="6"/>
<rect x="545" y="1460" width="58" height="58" rx="11" stroke="white" stroke-width="6"/>
<rect x="741" y="1460" width="58" height="58" rx="11" stroke="white" stroke-width="6"/>
<rect x="937" y="1460" width="58" height="58" rx="11" stroke="white" stroke-width="6"/>
<rect x="1525" y="1460" width="58" height="58" rx="11" stroke="white" stroke-width="6"/>
<rect x="1721" y="1460" width="58" height="150" rx="11" stroke="white" stroke-width="6"/>
<rect x="447" y="1460" width="58" height="58" rx="11" stroke="white" stroke-width="6"/>
<rect x="643" y="1460" width="58" height="58" rx="11" stroke="white" stroke-width="6"/>
<rect x="839" y="1460" width="58" height="58" rx="11" stroke="white" stroke-width="6"/>
<rect x="1035" y="1460" width="58" height="58" rx="11" stroke="white" stroke-width="6"/>
<rect x="1133" y="1460" width="156" height="58" rx="11" stroke="white" stroke-width="6"/>
<rect x="1427" y="1460" width="58" height="58" rx="11" stroke="white" stroke-width="6"/>
<rect x="1623" y="1460" width="58" height="58" rx="11" stroke="white" stroke-width="6"/>
<rect x="153" y="1368" width="142" height="58" rx="11" stroke="white" stroke-width="6"/>
<rect x="349" y="1368" width="58" height="58" rx="11" stroke="white" stroke-width="6"/>
<rect x="545" y="1368" width="58" height="58" rx="11" stroke="white" stroke-width="6"/>
<rect x="741" y="1368" width="58" height="58" rx="11" stroke="white" stroke-width="6"/>
<rect x="937" y="1368" width="58" height="58" rx="11" stroke="white" stroke-width="6"/>
<rect x="1525" y="1368" width="58" height="58" rx="11" stroke="white" stroke-width="6"/>
<rect x="1721" y="1276" width="58" height="150" rx="11" stroke="white" stroke-width="6"/>
<rect x="447" y="1368" width="58" height="58" rx="11" stroke="white" stroke-width="6"/>
<rect x="643" y="1368" width="58" height="58" rx="11" stroke="white" stroke-width="6"/>
<rect x="839" y="1368" width="58" height="58" rx="11" stroke="white" stroke-width="6"/>
<rect x="1035" y="1368" width="58" height="58" rx="11" stroke="white" stroke-width="6"/>
<rect x="1133" y="1368" width="156" height="58" rx="11" stroke="white" stroke-width="6"/>
<rect x="1427" y="1368" width="58" height="58" rx="11" stroke="white" stroke-width="6"/>
<rect x="1623" y="1368" width="58" height="58" rx="11" stroke="white" stroke-width="6"/>
<rect x="153" y="1276" width="85" height="58" rx="11" stroke="white" stroke-width="6"/>
<rect x="278" y="1276" width="58" height="58" rx="11" stroke="white" stroke-width="6"/>
<rect x="376" y="1276" width="58" height="58" rx="11" stroke="white" stroke-width="6"/>
<rect x="572" y="1276" width="58" height="58" rx="11" stroke="white" stroke-width="6"/>
<rect x="768" y="1276" width="58" height="58" rx="11" stroke="white" stroke-width="6"/>
<rect x="964" y="1276" width="58" height="58" rx="11" stroke="white" stroke-width="6"/>
<rect x="1525" y="1276" width="58" height="58" rx="11" stroke="white" stroke-width="6"/>
<rect x="474" y="1276" width="58" height="58" rx="11" stroke="white" stroke-width="6"/>
<rect x="670" y="1276" width="58" height="58" rx="11" stroke="white" stroke-width="6"/>
<rect x="866" y="1276" width="58" height="58" rx="11" stroke="white" stroke-width="6"/>
<rect x="1062" y="1276" width="58" height="58" rx="11" stroke="white" stroke-width="6"/>
<rect x="1160" y="1276" width="129" height="58" rx="11" stroke="white" stroke-width="6"/>
<rect x="1427" y="1276" width="58" height="58" rx="11" stroke="white" stroke-width="6"/>
<rect x="1623" y="1276" width="58" height="58" rx="11" stroke="white" stroke-width="6"/>
<rect x="153" y="1184" width="58" height="58" rx="11" stroke="white" stroke-width="6"/>
<rect x="251" y="1184" width="58" height="58" rx="11" stroke="white" stroke-width="6"/>
<rect x="349" y="1184" width="58" height="58" rx="11" stroke="white" stroke-width="6"/>
<rect x="545" y="1184" width="58" height="58" rx="11" stroke="white" stroke-width="6"/>
<rect x="741" y="1184" width="58" height="58" rx="11" stroke="white" stroke-width="6"/>
<rect x="937" y="1184" width="58" height="58" rx="11" stroke="white" stroke-width="6"/>
<rect x="1525" y="1184" width="58" height="58" rx="11" stroke="white" stroke-width="6"/>
<rect x="1721" y="1184" width="58" height="58" rx="11" stroke="white" stroke-width="6"/>
<rect x="447" y="1184" width="58" height="58" rx="11" stroke="white" stroke-width="6"/>
<rect x="643" y="1184" width="58" height="58" rx="11" stroke="white" stroke-width="6"/>
<rect x="839" y="1184" width="58" height="58" rx="11" stroke="white" stroke-width="6"/>
<rect x="1035" y="1184" width="58" height="58" rx="11" stroke="white" stroke-width="6"/>
<rect x="1133" y="1184" width="156" height="58" rx="11" stroke="white" stroke-width="6"/>
<rect x="1427" y="1184" width="58" height="58" rx="11" stroke="white" stroke-width="6"/>
<rect x="1623" y="1184" width="58" height="58" rx="11" stroke="white" stroke-width="6"/>
<line x1="1358" y1="1184" x2="1358" y2="1610" stroke="white" stroke-width="6" stroke-linecap="round"/>
<rect x="1151" y="1570" width="10" height="10" fill="white"/>
<rect x="1163" y="1570" width="10" height="10" fill="white"/>
<rect x="1163" y="1582" width="10" height="10" fill="white"/>
<rect x="1151" y="1582" width="10" height="10" fill="white"/>
<rect x="367" y="1570" width="10" height="10" fill="white"/>
<rect x="379" y="1570" width="10" height="10" fill="white"/>
<rect x="379" y="1582" width="10" height="10" fill="white"/>
<rect x="367" y="1582" width="10" height="10" fill="white"/>
<path d="M2172 1243C2203.81 1243 2219.13 1243.03 2231.62 1246.37C2265.79 1255.53 2292.47 1282.21 2301.63 1316.38C2304.97 1328.87 2305 1344.19 2305 1376V1520C2305 1533.07 2305 1539.4 2304.52 1544.71C2299.34 1601.97 2253.97 1647.34 2196.71 1652.52C2191.4 1653 2185.07 1653 2172 1653C2158.93 1653 2152.6 1653 2147.29 1652.52C2090.03 1647.34 2044.66 1601.97 2039.48 1544.71C2039 1539.4 2039 1533.07 2039 1520V1376C2039 1344.19 2039.03 1328.87 2042.37 1316.38C2051.53 1282.21 2078.21 1255.53 2112.38 1246.37C2124.87 1243.03 2140.19 1243 2172 1243Z" stroke="white" stroke-width="6"/>
<rect x="2158" y="1329" width="28" height="94" rx="14" stroke="white" stroke-width="6"/>
<path d="M2130.72 1582V1566.46H2133.57V1582H2130.72ZM2141.17 1582.25C2137.62 1582.25 2134.81 1579.4 2134.81 1575.87C2134.81 1572.28 2137.62 1569.46 2141.17 1569.46C2144.7 1569.46 2147.53 1572.28 2147.53 1575.87C2147.53 1579.4 2144.7 1582.25 2141.17 1582.25ZM2141.17 1579.58C2143.19 1579.58 2144.74 1577.9 2144.74 1575.87C2144.74 1573.79 2143.19 1572.13 2141.17 1572.13C2139.13 1572.13 2137.6 1573.79 2137.6 1575.87C2137.6 1577.9 2139.13 1579.58 2141.17 1579.58ZM2158.55 1581.79V1580.36C2157.64 1581.54 2156.19 1582.25 2154.54 1582.25C2151.57 1582.25 2148.49 1579.9 2148.49 1575.87C2148.49 1571.79 2151.47 1569.46 2154.58 1569.46C2156.19 1569.46 2157.62 1570.18 2158.53 1571.29V1569.71H2161.36V1581.68C2161.36 1585.13 2159.16 1587.94 2155.02 1587.94C2151.83 1587.94 2149.83 1586.45 2148.72 1584.42L2151.24 1582.88C2152.14 1584.54 2153.11 1585.34 2155.06 1585.34C2157.2 1585.34 2158.55 1583.66 2158.55 1581.79ZM2155 1579.65C2157.12 1579.65 2158.67 1577.95 2158.67 1575.83C2158.67 1573.73 2157.12 1572.05 2155 1572.05C2152.9 1572.05 2151.28 1573.7 2151.28 1575.83C2151.28 1577.97 2152.9 1579.65 2155 1579.65ZM2162.91 1582V1569.71H2165.77V1582H2162.91ZM2162.56 1566.71C2162.56 1565.64 2163.25 1564.93 2164.34 1564.93C2165.45 1564.93 2166.13 1565.64 2166.13 1566.71C2166.13 1567.78 2165.45 1568.48 2164.34 1568.48C2163.19 1568.48 2162.56 1567.78 2162.56 1566.71ZM2166.96 1572.26V1569.71H2169.06V1567.85L2171.92 1565.89V1569.71H2174.42V1572.26H2171.92V1576.85C2171.92 1579 2172.23 1579.33 2174.42 1579.33V1582H2174.02C2170.22 1582 2169.06 1580.78 2169.06 1576.88V1572.26H2166.96ZM2181.47 1582.25C2177.61 1582.25 2174.98 1579.44 2174.98 1575.89C2174.98 1572.3 2177.78 1569.46 2181.37 1569.46C2185.02 1569.46 2187.69 1572.15 2187.69 1575.78V1576.85H2177.69C2178.09 1578.6 2179.46 1579.75 2181.47 1579.75C2183.07 1579.75 2184.29 1578.91 2184.87 1577.59L2187.21 1578.93C2186.13 1580.93 2184.24 1582.25 2181.47 1582.25ZM2181.37 1571.96C2179.67 1571.96 2178.34 1572.97 2177.84 1574.48H2184.81C2184.39 1572.82 2183.13 1571.96 2181.37 1571.96ZM2194.94 1582.25C2191.35 1582.25 2188.56 1579.4 2188.56 1575.87C2188.56 1572.28 2191.35 1569.46 2194.94 1569.46C2197.69 1569.46 2199.86 1571.04 2200.8 1573.26L2198.26 1574.33C2197.69 1572.99 2196.48 1572.13 2194.96 1572.13C2192.89 1572.13 2191.33 1573.79 2191.33 1575.87C2191.33 1577.9 2192.89 1579.58 2194.99 1579.58C2196.58 1579.58 2197.74 1578.64 2198.3 1577.3L2200.84 1578.39C2199.88 1580.66 2197.8 1582.25 2194.94 1582.25ZM2201.92 1582V1566.46H2204.75V1571.18C2205.59 1570.11 2206.85 1569.46 2208.43 1569.46C2211.52 1569.46 2213.3 1571.37 2213.3 1574.71V1582H2210.4V1575.03C2210.4 1573.1 2209.48 1571.92 2207.63 1571.92C2206.04 1571.92 2204.78 1573.12 2204.78 1575.26V1582H2201.92Z" fill="white"/>
<path d="M2181.47 1243C2247.3 1198.84 2032.09 1219.22 2036.05 1095" stroke="white" stroke-width="6" stroke-linecap="round"/>
</svg>
