<svg width="2506" height="1756" viewBox="0 0 2506 1756" fill="none" xmlns="http://www.w3.org/2000/svg">
<path d="M1752 119H180C146.311 119 119 146.311 119 180V978C119 1011.69 146.311 1039 180 1039H1752C1785.69 1039 1813 1011.69 1813 978V180C1813 146.311 1785.69 119 1752 119Z" stroke="white" stroke-width="6"/>
<path d="M958 471H858V571H958V471Z" fill="white"/>
<path d="M1074 471H974V571H1074V471Z" fill="white"/>
<path d="M1074 587H974V687H1074V587Z" fill="white"/>
<path d="M958 587H858V687H958V587Z" fill="white"/>
<path d="M1760 1141H172C142.729 1141 119 1164.73 119 1194V1600C119 1629.27 142.729 1653 172 1653H1760C1789.27 1653 1813 1629.27 1813 1600V1194C1813 1164.73 1789.27 1141 1760 1141Z" stroke="white" stroke-width="6"/>
<path d="M298 1552H164C157.925 1552 153 1556.92 153 1563V1599C153 1605.08 157.925 1610 164 1610H298C304.075 1610 309 1605.08 309 1599V1563C309 1556.92 304.075 1552 298 1552Z" stroke="white" stroke-width="6"/>
<path d="M396 1552H360C353.925 1552 349 1556.92 349 1563V1599C349 1605.08 353.925 1610 360 1610H396C402.075 1610 407 1605.08 407 1599V1563C407 1556.92 402.075 1552 396 1552Z" stroke="white" stroke-width="6"/>
<path d="M984 1552H556C549.925 1552 545 1556.92 545 1563V1599C545 1605.08 549.925 1610 556 1610H984C990.075 1610 995 1605.08 995 1599V1563C995 1556.92 990.075 1552 984 1552Z" stroke="white" stroke-width="6"/>
<path d="M1572 1552H1536C1529.92 1552 1525 1556.92 1525 1563V1599C1525 1605.08 1529.92 1610 1536 1610H1572C1578.08 1610 1583 1605.08 1583 1599V1563C1583 1556.92 1578.08 1552 1572 1552Z" stroke="white" stroke-width="6"/>
<path d="M494 1552H458C451.925 1552 447 1556.92 447 1563V1599C447 1605.08 451.925 1610 458 1610H494C500.075 1610 505 1605.08 505 1599V1563C505 1556.92 500.075 1552 494 1552Z" stroke="white" stroke-width="6"/>
<path d="M1082 1552H1046C1039.92 1552 1035 1556.92 1035 1563V1599C1035 1605.08 1039.92 1610 1046 1610H1082C1088.08 1610 1093 1605.08 1093 1599V1563C1093 1556.92 1088.08 1552 1082 1552Z" stroke="white" stroke-width="6"/>
<path d="M1180 1552H1144C1137.92 1552 1133 1556.92 1133 1563V1599C1133 1605.08 1137.92 1610 1144 1610H1180C1186.08 1610 1191 1605.08 1191 1599V1563C1191 1556.92 1186.08 1552 1180 1552Z" stroke="white" stroke-width="6"/>
<path d="M1277 1552H1241C1234.92 1552 1230 1556.92 1230 1563V1599C1230 1605.08 1234.92 1610 1241 1610H1277C1283.08 1610 1288 1605.08 1288 1599V1563C1288 1556.92 1283.08 1552 1277 1552Z" stroke="white" stroke-width="6"/>
<path d="M1474 1552H1438C1431.92 1552 1427 1556.92 1427 1563V1599C1427 1605.08 1431.92 1610 1438 1610H1474C1480.08 1610 1485 1605.08 1485 1599V1563C1485 1556.92 1480.08 1552 1474 1552Z" stroke="white" stroke-width="6"/>
<path d="M1670 1552H1634C1627.92 1552 1623 1556.92 1623 1563V1599C1623 1605.08 1627.92 1610 1634 1610H1670C1676.08 1610 1681 1605.08 1681 1599V1563C1681 1556.92 1676.08 1552 1670 1552Z" stroke="white" stroke-width="6"/>
<path d="M298 1460H164C157.925 1460 153 1464.92 153 1471V1507C153 1513.08 157.925 1518 164 1518H298C304.075 1518 309 1513.08 309 1507V1471C309 1464.92 304.075 1460 298 1460Z" stroke="white" stroke-width="6"/>
<path d="M396 1460H360C353.925 1460 349 1464.92 349 1471V1507C349 1513.08 353.925 1518 360 1518H396C402.075 1518 407 1513.08 407 1507V1471C407 1464.92 402.075 1460 396 1460Z" stroke="white" stroke-width="6"/>
<path d="M592 1460H556C549.925 1460 545 1464.92 545 1471V1507C545 1513.08 549.925 1518 556 1518H592C598.075 1518 603 1513.08 603 1507V1471C603 1464.92 598.075 1460 592 1460Z" stroke="white" stroke-width="6"/>
<path d="M788 1460H752C745.925 1460 741 1464.92 741 1471V1507C741 1513.08 745.925 1518 752 1518H788C794.075 1518 799 1513.08 799 1507V1471C799 1464.92 794.075 1460 788 1460Z" stroke="white" stroke-width="6"/>
<path d="M984 1460H948C941.925 1460 937 1464.92 937 1471V1507C937 1513.08 941.925 1518 948 1518H984C990.075 1518 995 1513.08 995 1507V1471C995 1464.92 990.075 1460 984 1460Z" stroke="white" stroke-width="6"/>
<path d="M1572 1460H1536C1529.92 1460 1525 1464.92 1525 1471V1507C1525 1513.08 1529.92 1518 1536 1518H1572C1578.08 1518 1583 1513.08 1583 1507V1471C1583 1464.92 1578.08 1460 1572 1460Z" stroke="white" stroke-width="6"/>
<path d="M1768 1460H1732C1725.92 1460 1721 1464.92 1721 1471V1599C1721 1605.08 1725.92 1610 1732 1610H1768C1774.08 1610 1779 1605.08 1779 1599V1471C1779 1464.92 1774.08 1460 1768 1460Z" stroke="white" stroke-width="6"/>
<path d="M494 1460H458C451.925 1460 447 1464.92 447 1471V1507C447 1513.08 451.925 1518 458 1518H494C500.075 1518 505 1513.08 505 1507V1471C505 1464.92 500.075 1460 494 1460Z" stroke="white" stroke-width="6"/>
<path d="M690 1460H654C647.925 1460 643 1464.92 643 1471V1507C643 1513.08 647.925 1518 654 1518H690C696.075 1518 701 1513.08 701 1507V1471C701 1464.92 696.075 1460 690 1460Z" stroke="white" stroke-width="6"/>
<path d="M886 1460H850C843.925 1460 839 1464.92 839 1471V1507C839 1513.08 843.925 1518 850 1518H886C892.075 1518 897 1513.08 897 1507V1471C897 1464.92 892.075 1460 886 1460Z" stroke="white" stroke-width="6"/>
<path d="M1082 1460H1046C1039.92 1460 1035 1464.92 1035 1471V1507C1035 1513.08 1039.92 1518 1046 1518H1082C1088.08 1518 1093 1513.08 1093 1507V1471C1093 1464.92 1088.08 1460 1082 1460Z" stroke="white" stroke-width="6"/>
<path d="M1278 1460H1144C1137.92 1460 1133 1464.92 1133 1471V1507C1133 1513.08 1137.92 1518 1144 1518H1278C1284.08 1518 1289 1513.08 1289 1507V1471C1289 1464.92 1284.08 1460 1278 1460Z" stroke="white" stroke-width="6"/>
<path d="M1474 1460H1438C1431.92 1460 1427 1464.92 1427 1471V1507C1427 1513.08 1431.92 1518 1438 1518H1474C1480.08 1518 1485 1513.08 1485 1507V1471C1485 1464.92 1480.08 1460 1474 1460Z" stroke="white" stroke-width="6"/>
<path d="M1670 1460H1634C1627.92 1460 1623 1464.92 1623 1471V1507C1623 1513.08 1627.92 1518 1634 1518H1670C1676.08 1518 1681 1513.08 1681 1507V1471C1681 1464.92 1676.08 1460 1670 1460Z" stroke="white" stroke-width="6"/>
<path d="M284 1368H164C157.925 1368 153 1372.92 153 1379V1415C153 1421.08 157.925 1426 164 1426H284C290.075 1426 295 1421.08 295 1415V1379C295 1372.92 290.075 1368 284 1368Z" stroke="white" stroke-width="6"/>
<path d="M396 1368H360C353.925 1368 349 1372.92 349 1379V1415C349 1421.08 353.925 1426 360 1426H396C402.075 1426 407 1421.08 407 1415V1379C407 1372.92 402.075 1368 396 1368Z" stroke="white" stroke-width="6"/>
<path d="M592 1368H556C549.925 1368 545 1372.92 545 1379V1415C545 1421.08 549.925 1426 556 1426H592C598.075 1426 603 1421.08 603 1415V1379C603 1372.92 598.075 1368 592 1368Z" stroke="white" stroke-width="6"/>
<path d="M788 1368H752C745.925 1368 741 1372.92 741 1379V1415C741 1421.08 745.925 1426 752 1426H788C794.075 1426 799 1421.08 799 1415V1379C799 1372.92 794.075 1368 788 1368Z" stroke="white" stroke-width="6"/>
<path d="M984 1368H948C941.925 1368 937 1372.92 937 1379V1415C937 1421.08 941.925 1426 948 1426H984C990.075 1426 995 1421.08 995 1415V1379C995 1372.92 990.075 1368 984 1368Z" stroke="white" stroke-width="6"/>
<path d="M1572 1368H1536C1529.92 1368 1525 1372.92 1525 1379V1415C1525 1421.08 1529.92 1426 1536 1426H1572C1578.08 1426 1583 1421.08 1583 1415V1379C1583 1372.92 1578.08 1368 1572 1368Z" stroke="white" stroke-width="6"/>
<path d="M1768 1276H1732C1725.92 1276 1721 1280.92 1721 1287V1415C1721 1421.08 1725.92 1426 1732 1426H1768C1774.08 1426 1779 1421.08 1779 1415V1287C1779 1280.92 1774.08 1276 1768 1276Z" stroke="white" stroke-width="6"/>
<path d="M494 1368H458C451.925 1368 447 1372.92 447 1379V1415C447 1421.08 451.925 1426 458 1426H494C500.075 1426 505 1421.08 505 1415V1379C505 1372.92 500.075 1368 494 1368Z" stroke="white" stroke-width="6"/>
<path d="M690 1368H654C647.925 1368 643 1372.92 643 1379V1415C643 1421.08 647.925 1426 654 1426H690C696.075 1426 701 1421.08 701 1415V1379C701 1372.92 696.075 1368 690 1368Z" stroke="white" stroke-width="6"/>
<path d="M886 1368H850C843.925 1368 839 1372.92 839 1379V1415C839 1421.08 843.925 1426 850 1426H886C892.075 1426 897 1421.08 897 1415V1379C897 1372.92 892.075 1368 886 1368Z" stroke="white" stroke-width="6"/>
<path d="M1082 1368H1046C1039.92 1368 1035 1372.92 1035 1379V1415C1035 1421.08 1039.92 1426 1046 1426H1082C1088.08 1426 1093 1421.08 1093 1415V1379C1093 1372.92 1088.08 1368 1082 1368Z" stroke="white" stroke-width="6"/>
<path d="M1278 1368H1144C1137.92 1368 1133 1372.92 1133 1379V1415C1133 1421.08 1137.92 1426 1144 1426H1278C1284.08 1426 1289 1421.08 1289 1415V1379C1289 1372.92 1284.08 1368 1278 1368Z" stroke="white" stroke-width="6"/>
<path d="M1474 1368H1438C1431.92 1368 1427 1372.92 1427 1379V1415C1427 1421.08 1431.92 1426 1438 1426H1474C1480.08 1426 1485 1421.08 1485 1415V1379C1485 1372.92 1480.08 1368 1474 1368Z" stroke="white" stroke-width="6"/>
<path d="M1670 1368H1634C1627.92 1368 1623 1372.92 1623 1379V1415C1623 1421.08 1627.92 1426 1634 1426H1670C1676.08 1426 1681 1421.08 1681 1415V1379C1681 1372.92 1676.08 1368 1670 1368Z" stroke="white" stroke-width="6"/>
<path d="M227 1276H164C157.925 1276 153 1280.92 153 1287V1323C153 1329.08 157.925 1334 164 1334H227C233.075 1334 238 1329.08 238 1323V1287C238 1280.92 233.075 1276 227 1276Z" stroke="white" stroke-width="6"/>
<path d="M325 1276H289C282.925 1276 278 1280.92 278 1287V1323C278 1329.08 282.925 1334 289 1334H325C331.075 1334 336 1329.08 336 1323V1287C336 1280.92 331.075 1276 325 1276Z" stroke="white" stroke-width="6"/>
<path d="M423 1276H387C380.925 1276 376 1280.92 376 1287V1323C376 1329.08 380.925 1334 387 1334H423C429.075 1334 434 1329.08 434 1323V1287C434 1280.92 429.075 1276 423 1276Z" stroke="white" stroke-width="6"/>
<path d="M619 1276H583C576.925 1276 572 1280.92 572 1287V1323C572 1329.08 576.925 1334 583 1334H619C625.075 1334 630 1329.08 630 1323V1287C630 1280.92 625.075 1276 619 1276Z" stroke="white" stroke-width="6"/>
<path d="M815 1276H779C772.925 1276 768 1280.92 768 1287V1323C768 1329.08 772.925 1334 779 1334H815C821.075 1334 826 1329.08 826 1323V1287C826 1280.92 821.075 1276 815 1276Z" stroke="white" stroke-width="6"/>
<path d="M1011 1276H975C968.925 1276 964 1280.92 964 1287V1323C964 1329.08 968.925 1334 975 1334H1011C1017.08 1334 1022 1329.08 1022 1323V1287C1022 1280.92 1017.08 1276 1011 1276Z" stroke="white" stroke-width="6"/>
<path d="M1572 1276H1536C1529.92 1276 1525 1280.92 1525 1287V1323C1525 1329.08 1529.92 1334 1536 1334H1572C1578.08 1334 1583 1329.08 1583 1323V1287C1583 1280.92 1578.08 1276 1572 1276Z" stroke="white" stroke-width="6"/>
<path d="M521 1276H485C478.925 1276 474 1280.92 474 1287V1323C474 1329.08 478.925 1334 485 1334H521C527.075 1334 532 1329.08 532 1323V1287C532 1280.92 527.075 1276 521 1276Z" stroke="white" stroke-width="6"/>
<path d="M717 1276H681C674.925 1276 670 1280.92 670 1287V1323C670 1329.08 674.925 1334 681 1334H717C723.075 1334 728 1329.08 728 1323V1287C728 1280.92 723.075 1276 717 1276Z" stroke="white" stroke-width="6"/>
<path d="M913 1276H877C870.925 1276 866 1280.92 866 1287V1323C866 1329.08 870.925 1334 877 1334H913C919.075 1334 924 1329.08 924 1323V1287C924 1280.92 919.075 1276 913 1276Z" stroke="white" stroke-width="6"/>
<path d="M1109 1276H1073C1066.92 1276 1062 1280.92 1062 1287V1323C1062 1329.08 1066.92 1334 1073 1334H1109C1115.08 1334 1120 1329.08 1120 1323V1287C1120 1280.92 1115.08 1276 1109 1276Z" stroke="white" stroke-width="6"/>
<path d="M1278 1276H1171C1164.92 1276 1160 1280.92 1160 1287V1323C1160 1329.08 1164.92 1334 1171 1334H1278C1284.08 1334 1289 1329.08 1289 1323V1287C1289 1280.92 1284.08 1276 1278 1276Z" stroke="white" stroke-width="6"/>
<path d="M1474 1276H1438C1431.92 1276 1427 1280.92 1427 1287V1323C1427 1329.08 1431.92 1334 1438 1334H1474C1480.08 1334 1485 1329.08 1485 1323V1287C1485 1280.92 1480.08 1276 1474 1276Z" stroke="white" stroke-width="6"/>
<path d="M1670 1276H1634C1627.92 1276 1623 1280.92 1623 1287V1323C1623 1329.08 1627.92 1334 1634 1334H1670C1676.08 1334 1681 1329.08 1681 1323V1287C1681 1280.92 1676.08 1276 1670 1276Z" stroke="white" stroke-width="6"/>
<path d="M200 1184H164C157.925 1184 153 1188.92 153 1195V1231C153 1237.08 157.925 1242 164 1242H200C206.075 1242 211 1237.08 211 1231V1195C211 1188.92 206.075 1184 200 1184Z" stroke="white" stroke-width="6"/>
<path d="M298 1184H262C255.925 1184 251 1188.92 251 1195V1231C251 1237.08 255.925 1242 262 1242H298C304.075 1242 309 1237.08 309 1231V1195C309 1188.92 304.075 1184 298 1184Z" stroke="white" stroke-width="6"/>
<path d="M396 1184H360C353.925 1184 349 1188.92 349 1195V1231C349 1237.08 353.925 1242 360 1242H396C402.075 1242 407 1237.08 407 1231V1195C407 1188.92 402.075 1184 396 1184Z" stroke="white" stroke-width="6"/>
<path d="M592 1184H556C549.925 1184 545 1188.92 545 1195V1231C545 1237.08 549.925 1242 556 1242H592C598.075 1242 603 1237.08 603 1231V1195C603 1188.92 598.075 1184 592 1184Z" stroke="white" stroke-width="6"/>
<path d="M788 1184H752C745.925 1184 741 1188.92 741 1195V1231C741 1237.08 745.925 1242 752 1242H788C794.075 1242 799 1237.08 799 1231V1195C799 1188.92 794.075 1184 788 1184Z" stroke="white" stroke-width="6"/>
<path d="M984 1184H948C941.925 1184 937 1188.92 937 1195V1231C937 1237.08 941.925 1242 948 1242H984C990.075 1242 995 1237.08 995 1231V1195C995 1188.92 990.075 1184 984 1184Z" stroke="white" stroke-width="6"/>
<path d="M1572 1184H1536C1529.92 1184 1525 1188.92 1525 1195V1231C1525 1237.08 1529.92 1242 1536 1242H1572C1578.08 1242 1583 1237.08 1583 1231V1195C1583 1188.92 1578.08 1184 1572 1184Z" stroke="white" stroke-width="6"/>
<path d="M1768 1184H1732C1725.92 1184 1721 1188.92 1721 1195V1231C1721 1237.08 1725.92 1242 1732 1242H1768C1774.08 1242 1779 1237.08 1779 1231V1195C1779 1188.92 1774.08 1184 1768 1184Z" stroke="white" stroke-width="6"/>
<path d="M494 1184H458C451.925 1184 447 1188.92 447 1195V1231C447 1237.08 451.925 1242 458 1242H494C500.075 1242 505 1237.08 505 1231V1195C505 1188.92 500.075 1184 494 1184Z" stroke="white" stroke-width="6"/>
<path d="M690 1184H654C647.925 1184 643 1188.92 643 1195V1231C643 1237.08 647.925 1242 654 1242H690C696.075 1242 701 1237.08 701 1231V1195C701 1188.92 696.075 1184 690 1184Z" stroke="white" stroke-width="6"/>
<path d="M886 1184H850C843.925 1184 839 1188.92 839 1195V1231C839 1237.08 843.925 1242 850 1242H886C892.075 1242 897 1237.08 897 1231V1195C897 1188.92 892.075 1184 886 1184Z" stroke="white" stroke-width="6"/>
<path d="M1082 1184H1046C1039.92 1184 1035 1188.92 1035 1195V1231C1035 1237.08 1039.92 1242 1046 1242H1082C1088.08 1242 1093 1237.08 1093 1231V1195C1093 1188.92 1088.08 1184 1082 1184Z" stroke="white" stroke-width="6"/>
<path d="M1278 1184H1144C1137.92 1184 1133 1188.92 1133 1195V1231C1133 1237.08 1137.92 1242 1144 1242H1278C1284.08 1242 1289 1237.08 1289 1231V1195C1289 1188.92 1284.08 1184 1278 1184Z" stroke="white" stroke-width="6"/>
<path d="M1474 1184H1438C1431.92 1184 1427 1188.92 1427 1195V1231C1427 1237.08 1431.92 1242 1438 1242H1474C1480.08 1242 1485 1237.08 1485 1231V1195C1485 1188.92 1480.08 1184 1474 1184Z" stroke="white" stroke-width="6"/>
<path d="M1670 1184H1634C1627.92 1184 1623 1188.92 1623 1195V1231C1623 1237.08 1627.92 1242 1634 1242H1670C1676.08 1242 1681 1237.08 1681 1231V1195C1681 1188.92 1676.08 1184 1670 1184Z" stroke="white" stroke-width="6"/>
<path d="M1358 1184V1610" stroke="white" stroke-width="6" stroke-linecap="round"/>
<path d="M1161 1570H1151V1580H1161V1570Z" fill="white"/>
<path d="M1173 1570H1163V1580H1173V1570Z" fill="white"/>
<path d="M1173 1582H1163V1592H1173V1582Z" fill="white"/>
<path d="M1161 1582H1151V1592H1161V1582Z" fill="white"/>
<path d="M377 1570H367V1580H377V1570Z" fill="white"/>
<path d="M389 1570H379V1580H389V1570Z" fill="white"/>
<path d="M389 1582H379V1592H389V1582Z" fill="white"/>
<path d="M377 1582H367V1592H377V1582Z" fill="white"/>
<path d="M2172 1243C2203.81 1243 2219.13 1243.03 2231.62 1246.37C2265.79 1255.53 2292.47 1282.21 2301.63 1316.38C2304.97 1328.87 2305 1344.19 2305 1376V1520C2305 1533.07 2305 1539.4 2304.52 1544.71C2299.34 1601.97 2253.97 1647.34 2196.71 1652.52C2191.4 1653 2185.07 1653 2172 1653C2158.93 1653 2152.6 1653 2147.29 1652.52C2090.03 1647.34 2044.66 1601.97 2039.48 1544.71C2039 1539.4 2039 1533.07 2039 1520V1376C2039 1344.19 2039.03 1328.87 2042.37 1316.38C2051.53 1282.21 2078.21 1255.53 2112.38 1246.37C2124.87 1243.03 2140.19 1243 2172 1243Z" stroke="white" stroke-width="6"/>
<path d="M2186 1343C2186 1335.27 2179.73 1329 2172 1329C2164.27 1329 2158 1335.27 2158 1343V1409C2158 1416.73 2164.27 1423 2172 1423C2179.73 1423 2186 1416.73 2186 1409V1343Z" stroke="white" stroke-width="6"/>
<path d="M2130.72 1582V1566.46H2133.57V1582H2130.72ZM2141.17 1582.25C2137.62 1582.25 2134.81 1579.4 2134.81 1575.87C2134.81 1572.28 2137.62 1569.46 2141.17 1569.46C2144.7 1569.46 2147.53 1572.28 2147.53 1575.87C2147.53 1579.4 2144.7 1582.25 2141.17 1582.25ZM2141.17 1579.58C2143.19 1579.58 2144.74 1577.9 2144.74 1575.87C2144.74 1573.79 2143.19 1572.13 2141.17 1572.13C2139.13 1572.13 2137.6 1573.79 2137.6 1575.87C2137.6 1577.9 2139.13 1579.58 2141.17 1579.58ZM2158.55 1581.79V1580.36C2157.64 1581.54 2156.19 1582.25 2154.54 1582.25C2151.57 1582.25 2148.49 1579.9 2148.49 1575.87C2148.49 1571.79 2151.47 1569.46 2154.58 1569.46C2156.19 1569.46 2157.62 1570.18 2158.53 1571.29V1569.71H2161.36V1581.68C2161.36 1585.13 2159.16 1587.94 2155.02 1587.94C2151.83 1587.94 2149.83 1586.45 2148.72 1584.42L2151.24 1582.88C2152.14 1584.54 2153.11 1585.34 2155.06 1585.34C2157.2 1585.34 2158.55 1583.66 2158.55 1581.79ZM2155 1579.65C2157.12 1579.65 2158.67 1577.95 2158.67 1575.83C2158.67 1573.73 2157.12 1572.05 2155 1572.05C2152.9 1572.05 2151.28 1573.7 2151.28 1575.83C2151.28 1577.97 2152.9 1579.65 2155 1579.65ZM2162.91 1582V1569.71H2165.77V1582H2162.91ZM2162.56 1566.71C2162.56 1565.64 2163.25 1564.93 2164.34 1564.93C2165.45 1564.93 2166.13 1565.64 2166.13 1566.71C2166.13 1567.78 2165.45 1568.48 2164.34 1568.48C2163.19 1568.48 2162.56 1567.78 2162.56 1566.71ZM2166.96 1572.26V1569.71H2169.06V1567.85L2171.92 1565.89V1569.71H2174.42V1572.26H2171.92V1576.85C2171.92 1579 2172.23 1579.33 2174.42 1579.33V1582H2174.02C2170.22 1582 2169.06 1580.78 2169.06 1576.88V1572.26H2166.96ZM2181.47 1582.25C2177.61 1582.25 2174.98 1579.44 2174.98 1575.89C2174.98 1572.3 2177.78 1569.46 2181.37 1569.46C2185.02 1569.46 2187.69 1572.15 2187.69 1575.78V1576.85H2177.69C2178.09 1578.6 2179.46 1579.75 2181.47 1579.75C2183.07 1579.75 2184.29 1578.91 2184.87 1577.59L2187.21 1578.93C2186.13 1580.93 2184.24 1582.25 2181.47 1582.25ZM2181.37 1571.96C2179.67 1571.96 2178.34 1572.97 2177.84 1574.48H2184.81C2184.39 1572.82 2183.13 1571.96 2181.37 1571.96ZM2194.94 1582.25C2191.35 1582.25 2188.56 1579.4 2188.56 1575.87C2188.56 1572.28 2191.35 1569.46 2194.94 1569.46C2197.69 1569.46 2199.86 1571.04 2200.8 1573.26L2198.26 1574.33C2197.69 1572.99 2196.48 1572.13 2194.96 1572.13C2192.89 1572.13 2191.33 1573.79 2191.33 1575.87C2191.33 1577.9 2192.89 1579.58 2194.99 1579.58C2196.58 1579.58 2197.74 1578.64 2198.3 1577.3L2200.84 1578.39C2199.88 1580.66 2197.8 1582.25 2194.94 1582.25ZM2201.92 1582V1566.46H2204.75V1571.18C2205.59 1570.11 2206.85 1569.46 2208.43 1569.46C2211.52 1569.46 2213.3 1571.37 2213.3 1574.71V1582H2210.4V1575.03C2210.4 1573.1 2209.48 1571.92 2207.63 1571.92C2206.04 1571.92 2204.78 1573.12 2204.78 1575.26V1582H2201.92Z" fill="white"/>
<path d="M2181.47 1243C2247.3 1198.84 2032.09 1219.22 2036.05 1095" stroke="white" stroke-width="6" stroke-linecap="round"/>
<path d="M2057 198C2057 184.193 2045.81 173 2032 173C2018.19 173 2007 184.193 2007 198C2007 211.807 2018.19 223 2032 223C2045.81 223 2057 211.807 2057 198Z" stroke="white" stroke-width="6"/>
<path d="M2057 265C2057 251.193 2045.81 240 2032 240C2018.19 240 2007 251.193 2007 265C2007 278.807 2018.19 290 2032 290C2045.81 290 2057 278.807 2057 265Z" stroke="white" stroke-width="6"/>
<path d="M2057 332C2057 318.193 2045.81 307 2032 307C2018.19 307 2007 318.193 2007 332C2007 345.807 2018.19 357 2032 357C2045.81 357 2057 345.807 2057 332Z" stroke="white" stroke-width="6"/>
<circle cx="2032" cy="332" r="18" fill="white"/>
<rect x="1986" y="152" width="92" height="226" rx="46" stroke="white" stroke-width="6"/>
<rect x="1956" y="122" width="432" height="914" rx="69" stroke="white" stroke-width="6"/>
<path d="M2102.45 872.34C2098 872.34 2095.04 870.436 2092.76 867.886L2096.98 864.554C2098.24 866.73 2100.14 867.92 2102.42 867.92C2104.87 867.92 2106.19 866.322 2106.19 864.588C2106.19 862.514 2103.64 861.834 2101.03 861.018C2097.66 859.93 2093.99 858.672 2093.99 853.946C2093.99 849.968 2097.46 846.84 2102.22 846.84C2106.19 846.84 2108.54 848.37 2110.55 850.444L2106.74 853.334C2105.68 851.736 2104.19 850.954 2102.25 850.954C2099.97 850.954 2098.78 852.178 2098.78 853.776C2098.78 855.782 2101.13 856.36 2103.85 857.278C2107.21 858.366 2111.02 859.862 2111.02 864.622C2111.02 868.532 2107.89 872.34 2102.45 872.34ZM2122.79 872.408C2118 872.408 2113 868.6 2113 862.072C2113 855.476 2117.83 851.702 2122.86 851.702C2125.48 851.702 2127.79 852.756 2129.25 854.49V852.11H2133.84V872H2129.25V869.416C2127.79 871.286 2125.41 872.408 2122.79 872.408ZM2123.54 868.192C2126.97 868.192 2129.49 865.438 2129.49 862.004C2129.49 858.604 2126.97 855.884 2123.54 855.884C2120.14 855.884 2117.52 858.57 2117.52 862.004C2117.52 865.472 2120.14 868.192 2123.54 868.192ZM2136.62 872V852.11H2141.18V854.422C2142.43 852.756 2144.41 851.702 2146.85 851.702C2149.98 851.702 2152.12 852.96 2153.31 855.136C2154.67 853.062 2156.99 851.702 2159.84 851.702C2165.25 851.702 2167.93 854.83 2167.93 860.032V872H2163.24V860.406C2163.24 857.516 2161.78 855.68 2158.92 855.68C2156.44 855.68 2154.54 857.38 2154.54 860.882V872H2149.88V860.27C2149.88 857.414 2148.45 855.68 2145.7 855.68C2143.11 855.68 2141.21 857.448 2141.21 860.984V872H2136.62ZM2178.03 872.408C2173.58 872.408 2170.79 870.708 2169.19 867.58L2173.44 865.54C2174.4 867.41 2176.06 868.43 2178.24 868.43C2180.52 868.43 2181.64 867.342 2181.64 866.016C2181.64 864.554 2179.43 864.282 2176.98 863.738C2173.58 863.024 2170.01 861.936 2170.01 857.754C2170.01 854.558 2173.1 851.668 2177.83 851.668C2181.88 851.668 2184.43 853.232 2185.96 855.782L2182.05 857.754C2181.23 856.36 2179.73 855.476 2177.83 855.476C2175.65 855.476 2174.63 856.496 2174.63 857.618C2174.63 858.944 2176.2 859.284 2179.19 859.93C2182.45 860.576 2186.19 861.732 2186.19 865.914C2186.19 868.702 2183.71 872.408 2178.03 872.408ZM2205.9 852.11V872H2201.35V869.722C2200.09 871.388 2198.19 872.408 2195.64 872.408C2190.88 872.408 2187.99 869.314 2187.99 863.908V852.11H2192.64V863.432C2192.64 866.526 2194 868.43 2196.89 868.43C2199.44 868.43 2201.31 866.526 2201.31 863.024V852.11H2205.9ZM2208.74 872V852.11H2213.29V854.558C2214.62 852.824 2216.66 851.702 2219.24 851.702C2224.24 851.702 2227.13 854.796 2227.13 860.202V872H2222.47V860.678C2222.47 857.584 2220.98 855.68 2217.99 855.68C2215.37 855.68 2213.33 857.584 2213.33 861.086V872H2208.74ZM2245.43 871.66V869.348C2243.97 871.252 2241.62 872.408 2238.93 872.408C2234.14 872.408 2229.14 868.6 2229.14 862.072C2229.14 855.476 2233.97 851.702 2239 851.702C2241.62 851.702 2243.93 852.858 2245.39 854.66V852.11H2249.98V871.49C2249.98 877.066 2246.41 881.622 2239.72 881.622C2234.55 881.622 2231.32 879.208 2229.52 875.91L2233.6 873.428C2235.06 876.114 2236.62 877.406 2239.78 877.406C2243.25 877.406 2245.43 874.686 2245.43 871.66ZM2239.68 868.192C2243.12 868.192 2245.63 865.438 2245.63 862.004C2245.63 858.604 2243.12 855.884 2239.68 855.884C2236.28 855.884 2233.66 858.57 2233.66 862.004C2233.66 865.472 2236.28 868.192 2239.68 868.192Z" fill="white"/>
</svg>
